<svg width="24" height="24" viewBox="0 0 24 24" fill="none" xmlns="http://www.w3.org/2000/svg">
<rect width="24" height="24" rx="12" fill="white" fill-opacity="0.1"/>
<path fill-rule="evenodd" clip-rule="evenodd" d="M14.6477 12.3451C15.7992 11.9433 16.8844 11.2578 17.7138 10.5134L17.7144 10.5147C17.7467 10.4845 17.7667 10.4434 17.7704 10.3994C17.7742 10.3555 17.7614 10.3117 17.7347 10.2765C17.708 10.2413 17.6691 10.2172 17.6256 10.2088C17.5821 10.2004 17.537 10.2084 17.4991 10.2312C16.6671 10.7286 15.7489 11.1224 14.8077 11.3627C14.8358 11.0048 14.8299 10.6445 14.7836 10.2864C14.6772 9.49101 14.4071 8.6963 13.8455 8.09101C13.2234 7.40292 12.2022 7.14575 11.3208 7.42111C10.2618 7.73599 9.37904 8.69002 9.34505 9.82846C9.30223 11.3276 10.6987 12.5494 12.1197 12.6868C12.2855 12.7049 12.4527 12.7138 12.6208 12.714C12.3588 13.2866 12.0188 13.8337 11.655 14.3402C10.5377 12.4972 8.86284 10.9878 6.87195 10.1622C6.40828 9.966 5.92756 9.81252 5.43581 9.70364C5.26834 9.66915 5.10905 9.63841 4.93213 9.61897C4.88917 9.61491 4.84617 9.6263 4.81091 9.65108C4.77565 9.67586 4.75046 9.71239 4.73988 9.75407C4.72931 9.79575 4.73406 9.83982 4.75327 9.87832C4.77247 9.91681 4.80488 9.94719 4.84461 9.96395C5.95614 10.5136 6.97558 11.2313 7.86673 12.0916C9.02156 13.2026 9.93137 14.5411 10.5381 16.0218C10.8057 16.6598 11.645 16.8931 12.2066 16.4829C12.2928 16.4193 12.3716 16.3463 12.4415 16.2652C12.945 15.7194 13.3882 15.1214 13.7636 14.4813C14.1472 13.8273 14.4631 13.1008 14.6477 12.3451ZM12.1561 15.2669L12.1562 15.2673L12.1707 15.2968C12.1661 15.2867 12.1612 15.2767 12.1561 15.2669ZM13.0133 11.5895C13.1012 11.2139 13.1449 10.832 13.1309 10.4476C13.0937 9.75759 12.828 8.78285 12.0077 8.7678C11.3012 8.75965 10.6515 9.42703 10.8536 10.1358C11.1527 11.1702 12.0461 11.5475 13.0133 11.5895Z" fill="white"/>
<path d="M18.2597 9.80965C18.3321 10.1471 18.4435 10.361 18.769 10.3177C19.0485 10.2807 19.279 10.0003 19.279 9.71995C19.279 9.43957 19.0473 9.2583 18.769 9.3022C18.4158 9.35803 18.2005 9.53554 18.2597 9.80965Z" fill="white"/>
</svg>
